<svg xmlns="http://www.w3.org/2000/svg" height="1200" width="1600" version="1.1" xmlns:xlink="http://www.w3.org/1999/xlink" xmlns:svgjs="http://svgjs.com/svgjs"><rect fill="#f3ebe9" width="1600" height="1200"></rect><g><path d="M1325.22 319.68H1241.79V406.2H1325.22V319.68Z" fill="#cd657f" opacity="1" stroke-width="4" stroke="none"></path><path d="M1283.48 289.99L1316.72 261.7C1322.33 256.91 1323 248.51 1318.21 242.9 1317.34 241.86 1316.36 240.99 1315.22 240.32 1308.99 236.35 1300.74 238.15 1296.78 244.39 1296.05 245.52 1295.54 246.71 1295.18 248L1283.48 289.99Z" stroke="#474747" stroke-width="4" stroke-linecap="round" stroke-linejoin="round" opacity="1" fill="none"></path><path d="M1283.33 289.99L1250.09 261.7C1244.47 256.91 1243.8 248.51 1248.59 242.9 1249.47 241.86 1250.45 240.99 1251.58 240.32 1257.82 236.35 1266.06 238.15 1270.03 244.39 1270.75 245.52 1271.27 246.71 1271.63 248L1283.33 289.99Z" stroke="#474747" stroke-width="4" stroke-linecap="round" stroke-linejoin="round" opacity="1" fill="none"></path><path d="M1251.94 323.85H1241.79V330.29C1242.1 330.34 1242.46 330.34 1242.77 330.34 1246.94 330.34 1250.6 327.77 1251.94 323.85Z" fill="#6759c5" opacity="1" stroke-width="4" stroke="none"></path><path d="M1252.51 354.67C1252.51 349.31 1248.18 344.93 1242.77 344.93 1242.46 344.93 1242.1 344.93 1241.79 344.98V364.3C1242.1 364.35 1242.46 364.35 1242.77 364.35 1248.13 364.35 1252.51 360.03 1252.51 354.67Z" fill="#6759c5" opacity="1" stroke-width="4" stroke="none"></path><path d="M1252.51 388.68C1252.51 383.32 1248.18 378.94 1242.77 378.94 1242.46 378.94 1242.1 378.94 1241.79 378.99V398.31C1242.1 398.36 1242.46 398.36 1242.77 398.36 1248.13 398.42 1252.51 394.04 1252.51 388.68Z" fill="#6759c5" opacity="1" stroke-width="4" stroke="none"></path><path d="M1269.98 347.14C1275.36 347.14 1279.72 342.78 1279.72 337.4 1279.72 332.02 1275.36 327.66 1269.98 327.66 1264.6 327.66 1260.24 332.02 1260.24 337.4 1260.24 342.78 1264.6 347.14 1269.98 347.14Z" fill="#6759c5" opacity="1" stroke-width="4" stroke="none"></path><path d="M1269.98 381.15C1275.36 381.15 1279.72 376.79 1279.72 371.41 1279.72 366.03 1275.36 361.67 1269.98 361.67 1264.6 361.67 1260.24 366.03 1260.24 371.41 1260.24 376.79 1264.6 381.15 1269.98 381.15Z" fill="#6759c5" opacity="1" stroke-width="4" stroke="none"></path><path d="M1269.98 395.74C1264.62 395.74 1260.24 400.06 1260.24 405.48 1260.24 405.73 1260.24 405.99 1260.29 406.25H1279.67C1279.67 405.99 1279.72 405.73 1279.72 405.48 1279.72 400.12 1275.34 395.74 1269.98 395.74Z" fill="#6759c5" opacity="1" stroke-width="4" stroke="none"></path><path d="M1297.19 330.34C1301.31 330.34 1304.97 327.77 1306.36 323.85H1288.07C1289.41 327.77 1293.07 330.34 1297.19 330.34Z" fill="#6759c5" opacity="1" stroke-width="4" stroke="none"></path><path d="M1297.19 364.41C1302.57 364.41 1306.93 360.05 1306.93 354.67 1306.93 349.29 1302.57 344.93 1297.19 344.93 1291.81 344.93 1287.45 349.29 1287.45 354.67 1287.45 360.05 1291.81 364.41 1297.19 364.41Z" fill="#6759c5" opacity="1" stroke-width="4" stroke="none"></path><path d="M1297.19 398.47C1302.57 398.47 1306.93 394.11 1306.93 388.73 1306.93 383.35 1302.57 378.99 1297.19 378.99 1291.81 378.99 1287.45 383.35 1287.45 388.73 1287.45 394.11 1291.81 398.47 1297.19 398.47Z" fill="#6759c5" opacity="1" stroke-width="4" stroke="none"></path><path d="M1314.66 337.4C1314.66 342.76 1318.99 347.14 1324.4 347.14 1324.65 347.14 1324.96 347.14 1325.22 347.09V327.72C1324.96 327.72 1324.65 327.66 1324.4 327.66 1318.99 327.66 1314.66 332.04 1314.66 337.4Z" fill="#6759c5" opacity="1" stroke-width="4" stroke="none"></path><path d="M1314.66 371.41C1314.66 376.77 1318.99 381.15 1324.4 381.15 1324.65 381.15 1324.96 381.15 1325.22 381.1V361.73C1324.96 361.73 1324.65 361.67 1324.4 361.67 1318.99 361.73 1314.66 366.05 1314.66 371.41Z" fill="#6759c5" opacity="1" stroke-width="4" stroke="none"></path><path d="M1314.66 405.42C1314.66 405.68 1314.66 405.94 1314.71 406.2H1325.22V395.79C1324.96 395.79 1324.65 395.74 1324.4 395.74 1318.99 395.68 1314.66 400.06 1314.66 405.42Z" fill="#6759c5" opacity="1" stroke-width="4" stroke="none"></path><path d="M1241.79 319.68H1325.22V340.55L1241.79 331.27V319.68Z" fill="#1d1d1d" opacity="0.2" stroke-width="4" stroke="none"></path><path d="M1332.59 289.94H1234.42V323.9H1332.59V289.94Z" fill="#6759c5" opacity="1" stroke-width="4" stroke="none"></path><path d="M1241.79 323.85H1325.22" stroke="#474747" stroke-width="4" stroke-linecap="round" stroke-linejoin="round" opacity="1" fill="none"></path></g><g><path d="M883.31 797.5H1100.58C1115.72 797.5 1127.94 809.78 1127.94 824.86V1042.14C1127.94 1057.27 1115.67 1069.5 1100.58 1069.5H883.31C868.17 1069.5 855.95 1057.22 855.95 1042.14V824.92C855.9 809.78 868.17 797.5 883.31 797.5Z" fill="#cecece" opacity="1" stroke-width="4" stroke="none"></path></g><g><path d="M1121.6 496H1404.5C1426.9 496 1445 514.1 1445 536.5V805C1445 827.4 1426.9 845.5 1404.5 845.5H1121.6C1099.2 845.5 1081.1 827.4 1081.1 805V536.5C1081 514.1 1099.2 496 1121.6 496Z" fill="#ffffff" opacity="1" stroke-width="4" stroke="none"></path><path d="M1231.5 810C1236.75 810 1241 805.75 1241 800.5 1241 795.25 1236.75 791 1231.5 791 1226.25 791 1222 795.25 1222 800.5 1222 805.75 1226.25 810 1231.5 810Z" fill="#ef95b9" opacity="1" stroke-width="4" stroke="none"></path><path d="M1294.5 810C1299.75 810 1304 805.75 1304 800.5 1304 795.25 1299.75 791 1294.5 791 1289.25 791 1285 795.25 1285 800.5 1285 805.75 1289.25 810 1294.5 810Z" fill="#ef95b9" opacity="1" stroke-width="4" stroke="none"></path><path d="M1263.5 810C1268.75 810 1273 805.75 1273 800.5 1273 795.25 1268.75 791 1263.5 791 1258.25 791 1254 795.25 1254 800.5 1254 805.75 1258.25 810 1263.5 810Z" fill="#231f20" opacity="1" stroke-width="4" stroke="none"></path></g><g><path d="M1263.08 610.94C1248.32 611.18 1225.88 606.34 1221.29 600.17 1221.05 599.81 1220.44 599.99 1220.44 600.42V641.12H1305.72V598.84C1305.72 598.78 1305.6 598.72 1305.6 598.84 1303.49 605.44 1279.11 610.7 1263.08 610.94Z" fill="#6759c5" opacity="1" stroke-width="4" stroke="none"></path><path d="M1305.78 599.21C1278.02 590.19 1248.08 590.19 1220.38 599.33" stroke="#000000" stroke-width="4" stroke-linecap="round" stroke-linejoin="round" opacity="1" fill="none"></path><path d="M1327.2 607.07C1320.48 603.56 1313.53 600.48 1306.33 598.12 1305.97 598 1305.6 598.24 1305.54 598.54 1299.8 621.77 1276.45 636.22 1253.04 630.84 1237.07 627.15 1224.49 614.81 1220.44 598.9 1220.32 598.48 1219.9 598.18 1219.41 598.36 1212.4 600.66 1205.56 603.62 1199.03 607.07L1166.85 624 1190.38 668.76 1202.17 662.59C1204.84 661.2 1208.1 662.23 1209.49 664.89 1209.92 665.68 1210.1 666.52 1210.1 667.43V734.27H1315.95V667.61C1315.95 665.13 1317.52 662.83 1319.88 662.11 1321.39 661.62 1322.72 661.93 1323.93 662.47L1335.72 668.64 1359.25 623.88 1327.2 607.07Z" fill="#ced44e" opacity="1" stroke-width="4" stroke="none"></path><path d="M1253.95 567.75V564.79C1253.95 558.14 1259.33 552.69 1266.05 552.69 1272.7 552.69 1278.14 558.08 1278.14 564.79 1278.14 570.42 1274.57 575.44 1269.19 577.25 1265.62 578.46 1263.2 581.85 1263.2 585.6V591.34" stroke="#000000" stroke-width="4" stroke-linecap="round" stroke-linejoin="round" opacity="1" fill="none"></path><path d="M1279.78 679.83L1291.45 664.29C1291.75 663.86 1291.75 663.26 1291.45 662.83 1291.15 662.41 1290.54 662.23 1290.06 662.47L1271.19 670.03 1267.44 651.22C1267.32 650.74 1266.95 650.31 1266.41 650.25 1265.92 650.19 1265.38 650.44 1265.14 650.92L1257.52 666.1 1236.95 658.42C1236.47 658.24 1235.86 658.42 1235.56 658.84 1235.26 659.27 1235.26 659.87 1235.62 660.29L1251.17 679.77 1235.08 699.37C1234.72 699.79 1234.72 700.4 1235.02 700.82 1235.32 701.24 1235.92 701.42 1236.41 701.24L1257.4 693.44 1265.08 712.55C1265.26 713.04 1265.68 713.34 1266.23 713.34 1266.29 713.34 1266.29 713.34 1266.35 713.34 1266.89 713.28 1267.32 712.92 1267.44 712.37L1271.19 693.56 1290.06 701.12C1290.54 701.3 1291.09 701.18 1291.45 700.76 1291.81 700.33 1291.81 699.79 1291.57 699.37L1279.78 679.83Z" fill="#6759c5" opacity="1" stroke-width="4" stroke="none"></path></g><g><path d="M203.89 487H406.64C424.01 487 438.03 501.09 438.03 518.39V721.14C438.03 738.51 423.95 752.53 406.64 752.53H203.89C186.53 752.53 172.5 738.45 172.5 721.14V518.39C172.5 501.09 186.59 487 203.89 487Z" fill="#ffffff" opacity="1" stroke-width="4" stroke="none"></path></g><g><path d="M377.77 602.9H237.19C232.93 602.9 230.41 599.86 229.83 596.83 229.25 593.79 230.41 590.05 234.35 588.37L307.06 558.21C307.38 558.08 307.71 558.08 308.03 558.21L380.68 588.37C384.62 590.05 385.78 593.86 385.13 596.83 384.55 599.86 382.03 602.9 377.77 602.9ZM307.51 560.86L235.32 590.82C232.54 591.98 232.02 594.5 232.35 596.37 232.73 598.18 234.22 600.38 237.19 600.38H377.77C380.74 600.38 382.23 598.25 382.61 596.44 383 594.57 382.42 592.05 379.64 590.82L307.51 560.86Z" fill="#ef95b9" opacity="1" stroke-width="4" stroke="none"></path><path d="M307.58 559.89C306.87 559.89 306.29 559.31 306.29 558.6V547.04C306.29 546.33 306.87 545.75 307.58 545.75H312.68C315.78 545.75 318.68 544.52 320.88 542.32 323.08 540.13 324.3 537.22 324.3 534.12 324.3 527.73 319.07 522.5 312.68 522.5 307.84 522.5 303.9 526.44 303.9 531.28 303.9 531.99 303.31 532.57 302.6 532.57 301.89 532.57 301.31 531.99 301.31 531.28 301.31 525.02 306.41 519.92 312.68 519.92 320.49 519.92 326.89 526.31 326.89 534.12 326.89 537.93 325.4 541.48 322.75 544.2 320.04 546.91 316.49 548.33 312.74 548.33H308.93V558.6C308.87 559.31 308.29 559.89 307.58 559.89Z" fill="#ef95b9" opacity="1" stroke-width="4" stroke="none"></path><path d="M307.51 619.43L276.32 569.32 249.72 580.04 243.26 708.54H371.77L365.31 580.04 338.7 569.32 307.51 619.43Z" fill="#ced44e" opacity="1" stroke-width="4" stroke="none"></path><path d="M324.3 691.75C334.47 691.75 342.71 683.51 342.71 673.35 342.71 663.19 334.47 654.95 324.3 654.95 314.14 654.95 305.9 663.19 305.9 673.35 305.9 683.51 314.14 691.75 324.3 691.75Z" fill="#8e905a" opacity="1" stroke-width="4" stroke="none"></path><path d="M282.33 655.59C292.49 655.59 300.73 647.35 300.73 637.19 300.73 627.02 292.49 618.78 282.33 618.78 272.16 618.78 263.92 627.02 263.92 637.19 263.92 647.35 272.16 655.59 282.33 655.59Z" fill="#8e905a" opacity="1" stroke-width="4" stroke="none"></path><path d="M365.63 640.74C355.49 640.74 347.23 649 347.23 659.14 347.23 669.28 355.49 677.55 365.63 677.55 367.18 677.55 368.67 677.35 370.15 676.97L368.34 640.93C367.44 640.8 366.54 640.74 365.63 640.74Z" fill="#8e905a" opacity="1" stroke-width="4" stroke="none"></path><path d="M330.76 616.84C340.9 616.84 349.16 608.58 349.16 598.44 349.16 588.75 341.67 580.75 331.99 580.1L314.81 607.68C318.1 613.36 324.17 616.84 330.76 616.84Z" fill="#8e905a" opacity="1" stroke-width="4" stroke="none"></path><path d="M265.21 608.13C265.21 598.89 258.37 591.08 249.2 589.92L247.33 626.53C257.34 626.21 265.21 618.07 265.21 608.13Z" fill="#8e905a" opacity="1" stroke-width="4" stroke="none"></path><path d="M279.74 690.46C269.74 690.46 261.53 698.53 261.34 708.54H298.15C297.96 698.53 289.75 690.46 279.74 690.46Z" fill="#8e905a" opacity="1" stroke-width="4" stroke="none"></path></g><g><path d="M354.49 394.15C397.21 394.15 431.84 359.51 431.84 316.79 431.84 274.08 397.21 239.44 354.49 239.44 311.78 239.44 277.14 274.08 277.14 316.79 277.14 359.51 311.78 394.15 354.49 394.15Z" fill="#cd657f" opacity="1" stroke-width="4" stroke="none"></path><path d="M354.49 334.21L379.32 351.63C380.75 352.54 382.57 352.28 383.61 350.85 384 350.33 384.13 349.68 384.13 349.16V286.5C384.13 284.16 382.31 282.34 379.97 282.34H329.14C326.8 282.34 324.98 284.16 324.98 286.5V349.16C324.98 350.85 326.28 352.15 327.97 352.15 328.62 352.15 329.14 352.02 329.66 351.63L354.49 334.21Z" fill="#992b46" opacity="1" stroke-width="4" stroke="none"></path></g><g><path d="M1023.39 881.37L937.18 881.22 925.19 987.36H1035.33L1023.39 881.37Z" fill="#6759c5" opacity="1" stroke-width="4" stroke="none"></path><path d="M1048.51 881.22L962.31 881.22 950.35 987.36H1060.46L1048.51 881.22Z" fill="#ef95b9" opacity="1" stroke-width="4" stroke="none"></path><path d="M937.18 881.26L947.66 897.55 962.31 881.26H937.18Z" fill="#000000" opacity="0.2" stroke-width="4" stroke="none"></path><path d="M962.31 881.22L950.35 987.36" stroke="#2a2a2a" stroke-width="4" stroke-linecap="round" stroke-linejoin="round" opacity="1" fill="none"></path><path d="M1019.76 901.55V904.15C1019.76 906.11 1019.38 908.06 1018.63 909.87 1017.88 911.69 1016.77 913.33 1015.39 914.72 1014 916.11 1012.35 917.21 1010.54 917.96 1008.72 918.71 1006.78 919.1 1004.81 919.1V919.1C1002.85 919.1 1000.91 918.71 999.09 917.96 997.28 917.21 995.63 916.11 994.24 914.72 992.86 913.33 991.75 911.69 991 909.87 990.25 908.06 989.87 906.11 989.87 904.15V901.55" stroke="#2a2a2a" stroke-width="4" stroke-linecap="round" stroke-linejoin="round" opacity="1" fill="none"></path></g><g><path d="M682.5 154.2H1100.2C1129.3 154.2 1152.8 177.8 1152.8 206.8V624.5C1152.8 653.6 1129.2 677.1 1100.2 677.1H682.5C653.4 677.1 629.9 653.5 629.9 624.5V206.9C629.8 177.8 653.4 154.2 682.5 154.2Z" fill="#cecece" opacity="1" stroke-width="4" stroke="none"></path></g><g><path d="M891.05 524.04V615.07" stroke="#676767" stroke-width="4" stroke-linecap="round" stroke-linejoin="round" opacity="1" fill="none"></path><path d="M928.74 398.65C928.74 398.65 960.33 347.35 971.04 306.66L928.32 288.24C917.93 283.74 911.07 273.46 911.07 262.11H871.45C871.45 273.46 864.71 283.74 854.21 288.24L811.48 306.55C822.19 347.24 853.78 398.54 853.78 398.54L928.74 398.65Z" fill="#ef95b9" opacity="1" stroke-width="4" stroke="none"></path><path d="M928.74 398.65C928.74 398.65 960.33 347.35 971.04 306.66L936.03 291.67 891.26 356.99 846.5 291.67 811.48 306.66C822.19 347.35 853.78 398.65 853.78 398.65 853.78 398.65 796.49 458.72 790.07 534.22H992.46C986.03 458.72 928.74 398.65 928.74 398.65Z" fill="#6759c5" opacity="1" stroke-width="4" stroke="none"></path><path d="M962.15 302.8C962.15 302.8 942.02 363.95 897.26 398.65 897.26 398.65 932.28 469.96 942.24 534.22H992.46C986.03 458.61 928.74 398.65 928.74 398.65 928.74 398.65 960.33 347.35 971.04 306.66L962.15 302.8Z" fill="#676767" opacity="0.3" stroke-width="4" stroke="none"></path><path d="M853.78 398.65H928.74" stroke="#676767" stroke-width="4" stroke-linecap="round" stroke-linejoin="round" opacity="1" fill="none"></path></g><g><path d="M1129.3 227.11C1162.2 227.11 1188.86 200.45 1188.86 167.55 1188.86 134.66 1162.2 108 1129.3 108 1096.41 108 1069.75 134.66 1069.75 167.55 1069.75 200.45 1096.41 227.11 1129.3 227.11Z" fill="#ced44e" opacity="1" stroke-width="4" stroke="none"></path><path d="M1106.39 166.78L1124.88 185.27 1152.31 149.85" stroke="#000000" stroke-width="4" stroke-linecap="round" stroke-linejoin="round" opacity="1" fill="none"></path></g><g><path d="M623.46 532.98L618.32 567.65 503.08 567.65 496.41 533.08 494.31 522.89 624.32 528.03 623.46 532.98Z" fill="#846146" opacity="1" stroke-width="4" stroke="none"></path><path d="M454.5 514.03C458.98 478.88 469.27 434.5 483.55 411.64 496.41 390.97 528.79 379.74 528.79 379.74 528.79 379.74 527.74 374.69 526.22 367.35H595.08L597.84 378.31C639.75 377.35 664.51 404.97 664.51 404.97L700.23 439.74 713.56 407.36 776.9 426.59C770.14 471.17 751.85 524.31 715.47 530.22 680.23 535.93 630.23 491.65 630.23 491.65L624.13 529.27 496.41 529.27 504.22 569.65 489.74 588.32C474.5 577.84 448.79 558.79 454.5 514.03Z" fill="#cd657f" opacity="1" stroke-width="4" stroke="none"></path><path d="M709.28 417.74L715.66 455.36 700.23 439.74 709.28 417.74Z" fill="#000000" opacity="0.2" stroke-width="4" stroke="none"></path><path d="M490.5 498.22L504.22 569.65 490.22 588.6C484.98 584.98 478.69 580.6 472.6 574.41 480.79 562.22 488.79 552.12 490.5 498.22Z" fill="#000000" opacity="0.2" stroke-width="4" stroke="none"></path><path d="M630.04 492.6L626.13 516.79 610.23 474.22 630.04 492.6Z" fill="#000000" opacity="0.2" stroke-width="4" stroke="none"></path><path d="M726.61 374.21C722.8 343.73 724.71 316.11 726.61 311.35 727.75 308.59 732.33 310.4 735.18 314.21 738.99 285.64 748.52 272.3 755.18 273.25 758.99 267.54 764.71 267.54 767.57 274.21 773.28 274.21 774.8 278.87 775.19 283.73 776.14 297.06 773.28 311.35 774.23 326.59 777.09 318.97 784.71 293.54 790.42 294.21 799 295.16 788.23 320.88 789.47 345.64 791.38 384.69 779.95 393.26 779.95 393.26 779.66 405.17 778.42 416.98 776.61 428.69L712.71 409.36 726.61 374.21Z" fill="#846146" opacity="1" stroke-width="4" stroke="none"></path><path d="M489.74 491.17L496.41 529.27" stroke="#000000" stroke-width="4" stroke-linecap="round" stroke-linejoin="round" opacity="1" fill="none"></path><path d="M630.23 491.65L617.27 480.69" stroke="#000000" stroke-width="4" stroke-linecap="round" stroke-linejoin="round" opacity="1" fill="none"></path><path d="M700.23 439.74L714.52 454.02" stroke="#000000" stroke-width="4" stroke-linecap="round" stroke-linejoin="round" opacity="1" fill="none"></path><path d="M767.38 274.21C767.38 274.21 760.71 297.06 758.8 332.3" stroke="#000000" stroke-width="4" stroke-linecap="round" stroke-linejoin="round" opacity="1" fill="none"></path><path d="M755.18 273.25C755.18 273.25 746.33 292.3 743.47 329.45" stroke="#000000" stroke-width="4" stroke-linecap="round" stroke-linejoin="round" opacity="1" fill="none"></path><path d="M774.23 326.59L773.09 336.11" stroke="#000000" stroke-width="4" stroke-linecap="round" stroke-linejoin="round" opacity="1" fill="none"></path><path d="M735.18 314.21C735.85 314.21 732.23 331.35 731.09 343.73" stroke="#000000" stroke-width="4" stroke-linecap="round" stroke-linejoin="round" opacity="1" fill="none"></path><path d="M533.75 1081.68C536.79 1086.53 539.08 1092.15 539.27 1097.87H401.17C399.74 1092.53 398.31 1087.1 397.45 1081.68H533.75Z" fill="#0c0c0c" opacity="1" stroke-width="4" stroke="none"></path><path d="M395.45 964.53C395.64 962.15 395.93 959.86 396.21 957.57L400.98 938.14 500.6 938.81C500.6 938.81 496.31 958.43 496.79 958.34 483.55 998.53 477.36 1029.2 488.79 1041.67 491.27 1044.44 494.03 1047.01 496.79 1049.39L484.22 1082.63H422.12L393.45 1042.72C392.12 1016.62 392.79 990.53 395.45 964.53Z" fill="#846146" opacity="1" stroke-width="4" stroke="none"></path><path d="M496.79 1049.39C510.6 1061.29 526.51 1069.87 534.32 1082.63H477.36C478.22 1069.1 485.36 1056.72 496.79 1049.39Z" fill="#6759c5" opacity="1" stroke-width="4" stroke="none"></path><path d="M393.36 1042.72C414.98 1043.86 432.31 1061.1 433.45 1082.63H397.64C395.45 1069.39 394.02 1056.05 393.36 1042.72Z" fill="#6759c5" opacity="1" stroke-width="4" stroke="none"></path><path d="M426.88 1060.72L485.93 1031.2" stroke="#000000" stroke-width="4" stroke-linecap="round" stroke-linejoin="round" opacity="1" fill="none"></path><path d="M409.93 897.86H518.32C515.74 904.81 513.17 911.67 510.79 918.52 505.65 932.52 500.89 945.95 496.79 958.43 495.74 958.53 494.7 958.62 493.65 958.62 483.17 958.62 474.03 951.76 470.98 941.76 467.17 954.24 454.03 961.38 441.45 957.57 433.84 955.29 427.93 949.38 425.64 941.76 421.83 954.24 408.69 961.29 396.21 957.67 398.02 942.05 401.17 926.52 405.55 911.48 406.98 906.62 408.41 902.14 409.93 897.86Z" fill="#b3b3b3" opacity="1" stroke-width="4" stroke="none"></path><path d="M449.74 765.47C450.69 658.8 464.98 611.46 503.08 564.79H521.08 556.41L618.32 564.79C618.32 564.79 663.09 705.47 655.47 824.52 653.75 851.38 651.66 875.86 649.66 897.86L649.56 897.95H546.6C551.65 859 559.94 828.52 552.22 788.52 549.65 804.14 546.32 818.61 542.13 831.19 534.41 854.04 526.13 876.52 518.32 897.86L517.65 898.81 409.93 899.67V897.86C426.31 851.47 449.17 824.81 449.74 765.47Z" fill="#6759c5" opacity="1" stroke-width="4" stroke="none"></path><path d="M516.89 731.66C501.84 659.46 518.32 643.46 518.32 643.46 518.03 697.27 553.17 793.66 553.17 793.66 549.84 803.47 535.55 850.71 532.13 860.33 532.03 860.33 534.22 815 516.89 731.66Z" fill="#030303" opacity="0.2" stroke-width="4" stroke="none"></path><path d="M474.12 648.32C469.74 648.32 465.55 647.08 461.84 644.89 465.55 630.22 470.79 616.13 477.84 602.6H501.17L497.36 628.22C495.65 639.75 485.84 648.32 474.12 648.32Z" fill="#b3b3b3" opacity="1" stroke-width="4" stroke="none"></path><path d="M708.8 1097.87H570.7C570.7 1097.87 568.22 1092.34 564.79 1081.68H702.99C706.23 1086.53 708.61 1092.06 708.8 1097.87Z" fill="#0c0c0c" opacity="1" stroke-width="4" stroke="none"></path><path d="M554.51 1043.2C548.98 1016.34 545.46 989 544.03 961.67 543.94 960.53 544.03 959.48 543.94 958.34 544.32 958.43 547.08 939.29 547.08 939.29L643.18 938.24 644.51 957.86C641.66 998.91 642.51 1025.86 654.42 1038.82 658.04 1042.63 662.04 1046.34 666.13 1049.58L658.7 1082.72H582.8L554.51 1043.2Z" fill="#846146" opacity="1" stroke-width="4" stroke="none"></path><path d="M666.13 1049.48C679.94 1060.63 695.66 1069.96 703.66 1082.63H646.99C647.75 1069.2 654.8 1056.91 666.13 1049.48Z" fill="#6759c5" opacity="1" stroke-width="4" stroke="none"></path><path d="M554.51 1043.2C556.89 1042.82 559.27 1042.63 561.65 1042.63 584.13 1042.63 602.7 1060.15 603.94 1082.63H564.79C560.7 1069.67 557.27 1056.53 554.51 1043.2Z" fill="#6759c5" opacity="1" stroke-width="4" stroke="none"></path><path d="M503.08 564.79L618.32 564.79" stroke="#000000" stroke-width="4" stroke-linecap="round" stroke-linejoin="round" opacity="1" fill="none"></path><path d="M553.17 793.66C551.17 781.76 548.13 770.14 544.03 758.8 526.41 709.66 518.98 671.75 516.7 641.27" stroke="#000000" stroke-width="4" stroke-linecap="round" stroke-linejoin="round" opacity="1" fill="none"></path><path d="M584.03 602.6L534.51 602.6 538.22 628.22C539.94 639.75 549.84 648.32 561.46 648.32 574.41 648.32 584.89 637.84 584.89 624.8 584.89 624.51 584.89 624.13 584.89 623.84L584.03 602.6Z" fill="#b3b3b3" opacity="1" stroke-width="4" stroke="none"></path><path d="M594.51 1057.86L650.7 1028.34" stroke="#000000" stroke-width="4" stroke-linecap="round" stroke-linejoin="round" opacity="1" fill="none"></path><path d="M648.32 912.33C646.89 928.62 645.56 943.48 644.61 956.81 632.23 960.05 619.56 953 615.84 940.81 612.03 953.29 598.89 960.43 586.32 956.62 578.7 954.34 572.79 948.43 570.51 940.81 567.46 950.81 558.22 957.67 547.84 957.67 546.6 957.67 545.27 957.57 544.03 957.38 543.36 941.76 543.75 926.05 545.36 910.43 545.84 905.86 546.13 901.38 546.7 896.9H649.75C649.27 902.24 648.8 907.38 648.32 912.33Z" fill="#b3b3b3" opacity="1" stroke-width="4" stroke="none"></path><path d="M531.94 315.83C529.08 300.59 519.27 280.78 535.94 266.97 552.6 253.16 568.79 235.92 590.7 244.49 611.37 252.59 615.56 268.78 624.04 294.02 624.04 294.02 633.56 294.97 634.51 298.78 635.56 302.87 629.75 310.21 629.75 310.21 636.42 331.16 637.27 342.3 630.13 352.31 621.46 364.5 601.94 364.12 593.46 360.78L595.37 368.31H526.22C522.79 351.92 533.94 326.3 531.94 315.83Z" fill="#846146" opacity="1" stroke-width="4" stroke="none"></path><path d="M593.46 360.78L596.32 372.31 577.84 353.64 593.46 360.78Z" fill="#151414" opacity="0.2" stroke-width="4" stroke="none"></path><path d="M513.17 303.16C511.74 292.87 510.89 280.4 513.93 269.73 501.93 272.78 487.55 269.25 476.22 259.44 459.27 244.59 455.65 221.06 468.12 206.77 480.6 192.49 504.51 192.87 521.46 207.73 533.65 218.39 538.98 233.54 536.32 246.59 552.6 239.16 573.46 237.44 590.32 244.11 599.37 247.44 607.27 254.3 611.84 262.78 611.84 262.78 606.7 269.35 585.75 260.78 617.18 294.11 573.37 286.49 573.37 286.49 573.37 286.49 578.13 291.25 578.13 303.64 578.13 303.64 548.98 294.87 543.84 309.35 538.13 325.54 551.46 336.02 563.84 339.83 563.84 339.83 586.7 393.16 568.6 441.74H544.98C544.98 441.74 542.98 411.26 538.22 399.83L514.41 441.74 431.55 441.74C433.45 330.21 521.08 362.59 513.17 303.16Z" fill="#231f20" opacity="1" stroke-width="4" stroke="none"></path><path d="M521.94 265.73L525.94 266.02C521.17 276.11 511.84 285.64 511.84 285.64 512.03 273.73 512.51 267.44 521.94 265.73Z" fill="#000000" opacity="0.2" stroke-width="4" stroke="none"></path><path d="M563.08 354.97C556.24 354.97 550.7 349.43 550.7 342.59 550.7 335.75 556.24 330.21 563.08 330.21 569.92 330.21 575.46 335.75 575.46 342.59 575.46 349.43 569.92 354.97 563.08 354.97Z" fill="#6759c5" opacity="1" stroke-width="4" stroke="none"></path><path d="M593.46 360.78L583.84 356.4" stroke="#000000" stroke-width="4" stroke-linecap="round" stroke-linejoin="round" opacity="1" fill="none"></path><path d="M566.89 320.68L556.41 316.87" stroke="#000000" stroke-width="4" stroke-linecap="round" stroke-linejoin="round" opacity="1" fill="none"></path><path d="M620.23 320.68C614.51 322.59 609.75 317.83 609.75 317.83" stroke="#000000" stroke-width="4" stroke-linecap="round" stroke-linejoin="round" opacity="1" fill="none"></path><path d="M513.74 269.82C519.84 268.4 525.36 265.06 529.55 260.4 533.08 256.3 535.46 251.35 536.41 246.01" stroke="#000000" stroke-width="4" stroke-linecap="round" stroke-linejoin="round" opacity="1" fill="none"></path><path d="M618.51 276.21C623.08 275.16 628.23 280.87 630.04 288.87 631.46 295.54 630.13 301.73 626.99 304.21" stroke="#000000" stroke-width="4" stroke-linecap="round" stroke-linejoin="round" opacity="1" fill="none"></path><path d="M629.85 288.11L578.32 301.64" stroke="#000000" stroke-width="4" stroke-linecap="round" stroke-linejoin="round" opacity="1" fill="none"></path></g></svg>